<svg width="100" height="100" viewBox="0 0 100 100" fill="none" xmlns="http://www.w3.org/2000/svg">
<circle cx="50" cy="50" r="48.5" fill="white" stroke="#D9D9D9" stroke-width="3"/>
<path d="M50.4997 49.5C47.5205 49.5 44.9702 48.4393 42.8486 46.3177C40.7271 44.1962 39.6663 41.6459 39.6663 38.6667C39.6663 35.6875 40.7271 33.1372 42.8486 31.0157C44.9702 28.8941 47.5205 27.8334 50.4997 27.8334C53.4788 27.8334 56.0292 28.8941 58.1507 31.0157C60.2722 33.1372 61.333 35.6875 61.333 38.6667C61.333 41.6459 60.2722 44.1962 58.1507 46.3177C56.0292 48.4393 53.4788 49.5 50.4997 49.5ZM28.833 71.1667V63.5834C28.833 62.0487 29.2284 60.6376 30.0193 59.3502C30.8083 58.0647 31.8573 57.0834 33.1663 56.4063C35.965 55.007 38.8087 53.9571 41.6976 53.2565C44.5865 52.5577 47.5205 52.2084 50.4997 52.2084C53.4788 52.2084 56.4129 52.5577 59.3018 53.2565C62.1906 53.9571 65.0344 55.007 67.833 56.4063C69.142 57.0834 70.1911 58.0647 70.9801 59.3502C71.7709 60.6376 72.1663 62.0487 72.1663 63.5834V71.1667H28.833Z" fill="#D9D9D9"/>
</svg>
