<svg width="60" height="60" viewBox="0 0 60 60" fill="none" xmlns="http://www.w3.org/2000/svg">
<path d="M19.6878 46.171H18.3278V50.701H17.4478V41.961H18.3278V45.441H19.6878V46.171ZM16.7278 47.911L16.1978 48.571C15.4178 48.061 14.3978 46.971 14.0678 45.961C13.7678 47.021 12.8978 48.131 11.9078 48.791L11.3578 48.131C12.6778 47.301 13.6078 45.781 13.6078 44.171V42.711H14.5178V44.131C14.5178 45.771 15.4978 47.151 16.7278 47.911ZM20.1422 43.481V42.761H24.9322V43.481H23.0022V43.841C23.0022 45.081 24.1322 46.151 25.1222 46.461L24.6322 47.171C23.8522 46.861 22.9322 46.021 22.5622 45.221C22.2822 46.061 21.2922 47.031 20.3922 47.401L19.8622 46.701C21.0022 46.291 22.1022 45.081 22.1022 43.861V43.481H20.1422ZM27.1822 50.441H21.2922V47.731H22.1822V49.731H27.1822V50.441ZM26.9922 48.311H26.1022V41.961H26.9922V48.311ZM37.7755 45.961L37.3755 46.671C36.0755 46.481 34.6955 45.771 34.2255 44.951C33.8255 45.781 32.4955 46.501 31.0855 46.701L30.6855 45.991C32.0455 45.831 33.4755 45.201 33.7455 44.221H31.0755V43.501H37.3755V44.221H34.7255C35.0055 45.191 36.4755 45.831 37.7755 45.961ZM34.6555 50.701H33.7655V47.971H30.2855V47.241H38.1755V47.971H34.6555V50.701ZM35.6455 42.791H32.8055V42.071H35.6455V42.791ZM45.2798 41.961V45.541H46.6798V46.281H45.2798V50.701H44.3998V41.961H45.2798ZM42.9798 42.891C42.9298 45.671 41.4698 47.711 39.0798 49.011L38.5398 48.341C40.5998 47.351 41.8698 45.521 42.0298 43.641H38.9198V42.891H42.9798Z" fill="#9D9D9D"/>
<rect x="0.5" y="0.500977" width="59" height="59" rx="4.5" stroke="#9D9D9D"/>
<path d="M40.4375 13.9307H36.5014L34.5586 11.0145C34.4836 10.902 34.3819 10.8098 34.2626 10.7461C34.1434 10.6824 34.0102 10.6492 33.875 10.6494H25.125C24.9898 10.6492 24.8566 10.6824 24.7374 10.7461C24.6181 10.8098 24.5164 10.902 24.4414 11.0145L22.4973 13.9307H18.5625C17.7648 13.9307 16.9997 14.2476 16.4357 14.8116C15.8716 15.3757 15.5547 16.1408 15.5547 16.9385V32.251C15.5547 33.0487 15.8716 33.8137 16.4357 34.3778C16.9997 34.9419 17.7648 35.2588 18.5625 35.2588H40.4375C41.2352 35.2588 42.0003 34.9419 42.5643 34.3778C43.1284 33.8137 43.4453 33.0487 43.4453 32.251V16.9385C43.4453 16.1408 43.1284 15.3757 42.5643 14.8116C42.0003 14.2476 41.2352 13.9307 40.4375 13.9307ZM41.8047 32.251C41.8047 32.6136 41.6606 32.9613 41.4042 33.2177C41.1479 33.4741 40.8001 33.6182 40.4375 33.6182H18.5625C18.1999 33.6182 17.8521 33.4741 17.5958 33.2177C17.3394 32.9613 17.1953 32.6136 17.1953 32.251V16.9385C17.1953 16.5759 17.3394 16.2281 17.5958 15.9717C17.8521 15.7153 18.1999 15.5713 18.5625 15.5713H22.9375C23.0727 15.5715 23.2059 15.5383 23.3251 15.4746C23.4444 15.4109 23.5461 15.3187 23.6211 15.2063L25.5639 12.29H33.4348L35.3789 15.2063C35.4539 15.3187 35.5556 15.4109 35.6749 15.4746C35.7941 15.5383 35.9273 15.5715 36.0625 15.5713H40.4375C40.8001 15.5713 41.1479 15.7153 41.4042 15.9717C41.6606 16.2281 41.8047 16.5759 41.8047 16.9385V32.251ZM29.5 18.3057C28.3643 18.3057 27.2541 18.6424 26.3098 19.2734C25.3655 19.9044 24.6295 20.8012 24.1949 21.8504C23.7603 22.8997 23.6466 24.0542 23.8681 25.1681C24.0897 26.282 24.6366 27.3051 25.4397 28.1082C26.2427 28.9113 27.2659 29.4581 28.3798 29.6797C29.4936 29.9013 30.6482 29.7876 31.6974 29.3529C32.7467 28.9183 33.6435 28.1823 34.2745 27.238C34.9054 26.2937 35.2422 25.1835 35.2422 24.0479C35.2422 22.5249 34.6372 21.0644 33.5603 19.9875C32.4835 18.9106 31.0229 18.3057 29.5 18.3057ZM29.5 28.1494C28.6888 28.1494 27.8958 27.9089 27.2213 27.4582C26.5468 27.0075 26.0211 26.3669 25.7107 25.6175C25.4002 24.868 25.319 24.0433 25.4772 23.2477C25.6355 22.4521 26.0261 21.7212 26.5998 21.1476C27.1734 20.574 27.9042 20.1834 28.6998 20.0251C29.4955 19.8668 30.3201 19.9481 31.0696 20.2585C31.8191 20.5689 32.4596 21.0946 32.9103 21.7691C33.361 22.4436 33.6016 23.2366 33.6016 24.0479C33.6016 25.1357 33.1694 26.1789 32.4002 26.9481C31.6311 27.7173 30.5878 28.1494 29.5 28.1494Z" fill="#9D9D9D"/>
</svg>
