<svg width="23" height="23" viewBox="0 0 23 23" fill="none" xmlns="http://www.w3.org/2000/svg">
<path d="M11.5001 1.91663C10.2416 1.91663 8.9954 2.16451 7.8327 2.64611C6.66999 3.12772 5.61354 3.83362 4.72364 4.72352C2.92642 6.52074 1.91675 8.9583 1.91675 11.5C1.91675 14.0416 2.92642 16.4792 4.72364 18.2764C5.61354 19.1663 6.66999 19.8722 7.8327 20.3538C8.9954 20.8354 10.2416 21.0833 11.5001 21.0833C14.0417 21.0833 16.4793 20.0736 18.2765 18.2764C20.0737 16.4792 21.0834 14.0416 21.0834 11.5C21.0834 10.2415 20.8355 8.99528 20.3539 7.83258C19.8723 6.66987 19.1664 5.61341 18.2765 4.72352C17.3866 3.83362 16.3302 3.12772 15.1675 2.64611C14.0048 2.16451 12.7586 1.91663 11.5001 1.91663ZM11.5001 3.83329C13.5334 3.83329 15.4835 4.64103 16.9212 6.07881C18.359 7.51659 19.1667 9.46663 19.1667 11.5C19.1667 13.5333 18.359 15.4833 16.9212 16.9211C15.4835 18.3589 13.5334 19.1666 11.5001 19.1666C9.46676 19.1666 7.51671 18.3589 6.07893 16.9211C4.64115 15.4833 3.83341 13.5333 3.83341 11.5C3.83341 9.46663 4.64115 7.51659 6.07893 6.07881C7.51671 4.64103 9.46676 3.83329 11.5001 3.83329ZM11.5001 8.62496C10.7376 8.62496 10.0063 8.92786 9.46715 9.46703C8.92798 10.0062 8.62508 10.7375 8.62508 11.5C8.62508 12.2625 8.92798 12.9937 9.46715 13.5329C10.0063 14.0721 10.7376 14.375 11.5001 14.375C12.2626 14.375 12.9938 14.0721 13.533 13.5329C14.0722 12.9937 14.3751 12.2625 14.3751 11.5C14.3751 10.7375 14.0722 10.0062 13.533 9.46703C12.9938 8.92786 12.2626 8.62496 11.5001 8.62496Z" fill="#DF5757"/>
</svg>
