<svg width="40" height="40" viewBox="0 0 40 40" fill="none" xmlns="http://www.w3.org/2000/svg">
<circle cx="20" cy="20.001" r="19.75" fill="white" stroke="#888888" stroke-width="0.5"/>
<path d="M25.6639 29.8425C24.5009 30.97 23.231 30.792 22.0087 30.2579C20.7151 29.712 19.5283 29.6883 18.1635 30.2579C16.4545 30.9937 15.5526 30.7801 14.5319 29.8425C8.74045 23.873 9.59493 14.7823 16.1697 14.45C17.7719 14.5331 18.8874 15.3282 19.825 15.3994C21.2254 15.1146 22.5664 14.2957 24.0618 14.4025C25.8538 14.5449 27.2068 15.257 28.0969 16.5387C24.3941 18.758 25.2723 23.6357 28.6665 25.0005C27.99 26.7806 27.1118 28.5489 25.6521 29.8544L25.6639 29.8425ZM19.7063 14.3788C19.5283 11.7323 21.6764 9.54858 24.1449 9.33496C24.489 12.3969 21.3678 14.6755 19.7063 14.3788Z" fill="black"/>
</svg>
