<svg width="40" height="40" viewBox="0 0 40 40" fill="none" xmlns="http://www.w3.org/2000/svg">
<circle cx="20" cy="20.001" r="19.75" fill="white" stroke="#888888" stroke-width="0.5"/>
<path d="M29.8694 19.0518H20.19V21.9335H27.0616C26.7133 25.9552 23.3672 27.6757 20.2005 27.6757C16.1577 27.6757 12.6111 24.488 12.6111 20.0018C12.6111 15.6741 15.9889 12.328 20.2111 12.328C23.4727 12.328 25.3833 14.4074 25.3833 14.4074L27.3888 12.3174C27.3888 12.3174 24.8133 9.44629 20.1055 9.44629C14.11 9.44629 9.47607 14.513 9.47607 20.0018C9.47607 25.3324 13.8355 30.5574 20.2639 30.5574C25.9111 30.5574 30.0277 26.6835 30.0277 20.9624C30.0277 19.7485 29.8694 19.0518 29.8694 19.0518Z" fill="black"/>
</svg>
