<svg width="3" height="14" viewBox="0 0 3 14" fill="none" xmlns="http://www.w3.org/2000/svg">
<path d="M1.44444 10.6111C1.82753 10.6111 2.19493 10.7633 2.46582 11.0342C2.73671 11.3051 2.88889 11.6725 2.88889 12.0556C2.88889 12.4386 2.73671 12.806 2.46582 13.0769C2.19493 13.3478 1.82753 13.5 1.44444 13.5C1.06135 13.5 0.693954 13.3478 0.423068 13.0769C0.152182 12.806 0 12.4386 0 12.0556C0 11.6725 0.152182 11.3051 0.423068 11.0342C0.693954 10.7633 1.06135 10.6111 1.44444 10.6111ZM1.44444 5.55556C1.82753 5.55556 2.19493 5.70774 2.46582 5.97862C2.73671 6.24951 2.88889 6.61691 2.88889 7C2.88889 7.38309 2.73671 7.75049 2.46582 8.02138C2.19493 8.29226 1.82753 8.44444 1.44444 8.44444C1.06135 8.44444 0.693954 8.29226 0.423068 8.02138C0.152182 7.75049 0 7.38309 0 7C0 6.61691 0.152182 6.24951 0.423068 5.97862C0.693954 5.70774 1.06135 5.55556 1.44444 5.55556ZM1.44444 0.5C1.82753 0.5 2.19493 0.652183 2.46582 0.923068C2.73671 1.19395 2.88889 1.56135 2.88889 1.94444C2.88889 2.32753 2.73671 2.69493 2.46582 2.96582C2.19493 3.23671 1.82753 3.38889 1.44444 3.38889C1.06135 3.38889 0.693954 3.23671 0.423068 2.96582C0.152182 2.69493 0 2.32753 0 1.94444C0 1.56135 0.152182 1.19395 0.423068 0.923068C0.693954 0.652183 1.06135 0.5 1.44444 0.5Z" fill="#9D9D9D"/>
</svg>
