<svg width="38" height="37" viewBox="0 0 38 37" fill="none" xmlns="http://www.w3.org/2000/svg">
<path d="M12.1351 29.2621L19.0917 25.066L26.0484 29.3173L24.2264 21.3669L30.3549 16.0666L22.294 15.3488L19.0917 7.84004L15.8895 15.2936L7.82858 16.0113L13.9571 21.3669L12.1351 29.2621ZM19.0917 30.2559L9.92662 35.7771C9.52174 36.0347 9.09845 36.1451 8.65675 36.1083C8.21506 36.0715 7.82858 35.9243 7.49731 35.6666C7.16604 35.409 6.90839 35.0873 6.72435 34.7015C6.54031 34.3143 6.5035 33.8815 6.61393 33.403L9.04323 22.968L0.927141 15.9561C0.559065 15.6249 0.329385 15.2472 0.238102 14.8232C0.145346 14.4006 0.172584 13.9869 0.319814 13.582C0.467045 13.1772 0.687891 12.8459 0.982353 12.5882C1.27681 12.3306 1.6817 12.1649 2.19701 12.0913L12.908 11.1527L17.0489 1.32508C17.2329 0.883385 17.5186 0.552115 17.9058 0.331269C18.2915 0.110423 18.6868 0 19.0917 0C19.4966 0 19.8927 0.110423 20.2799 0.331269C20.6656 0.552115 20.9505 0.883385 21.1346 1.32508L25.2754 11.1527L35.9865 12.0913C36.5018 12.1649 36.9067 12.3306 37.2011 12.5882C37.4956 12.8459 37.7164 13.1772 37.8636 13.582C38.0109 13.9869 38.0389 14.4006 37.9476 14.8232C37.8548 15.2472 37.6244 15.6249 37.2563 15.9561L29.1402 22.968L31.5695 33.403C31.68 33.8815 31.6432 34.3143 31.4591 34.7015C31.2751 35.0873 31.0174 35.409 30.6862 35.6666C30.3549 35.9243 29.9684 36.0715 29.5267 36.1083C29.085 36.1451 28.6617 36.0347 28.2568 35.7771L19.0917 30.2559Z" fill="#DF5757"/>
</svg>
