<svg width="20" height="20" viewBox="0 0 20 20" fill="none" xmlns="http://www.w3.org/2000/svg">
<g clip-path="url(#clip0_1883_2580)">
<path d="M20 10C20 4.47715 15.5228 0 10 0C4.47715 0 0 4.47715 0 10C0 15.5228 4.47715 20 10 20C15.5228 20 20 15.5228 20 10Z" fill="black"/>
<path d="M9.89258 6.94458C10.0684 6.94458 10.3555 6.87622 10.7539 6.7395C11.1523 6.60278 11.498 6.53442 11.791 6.53442C12.2715 6.53442 12.6992 6.66333 13.0742 6.92114C13.2852 7.06958 13.4941 7.27075 13.7012 7.52466C13.3887 7.79028 13.1602 8.02661 13.0156 8.23364C12.7539 8.60864 12.623 9.02271 12.623 9.47583C12.623 9.97192 12.7617 10.4192 13.0391 10.8176C13.3164 11.2161 13.6328 11.468 13.9883 11.5735C13.8398 12.054 13.5938 12.5559 13.25 13.0793C12.7305 13.8645 12.2148 14.2571 11.7031 14.2571C11.5 14.2571 11.2188 14.1926 10.8594 14.0637C10.5039 13.9348 10.2031 13.8704 9.95703 13.8704C9.71094 13.8704 9.42383 13.9368 9.0957 14.0696C8.77148 14.2063 8.50781 14.2747 8.30469 14.2747C7.69141 14.2747 7.08984 13.7551 6.5 12.7161C5.91016 11.6887 5.61523 10.6809 5.61523 9.69263C5.61523 8.77466 5.83984 8.02661 6.28906 7.44849C6.74219 6.87036 7.3125 6.5813 8 6.5813C8.29297 6.5813 8.64648 6.64185 9.06055 6.76294C9.47852 6.88403 9.75586 6.94458 9.89258 6.94458ZM11.7266 4.52466C11.7266 4.77466 11.668 5.0481 11.5508 5.34497C11.4336 5.64185 11.248 5.91724 10.9941 6.17114C10.7754 6.38599 10.5586 6.53052 10.3438 6.60474C10.207 6.64771 10 6.68091 9.72266 6.70435C9.73047 6.1106 9.88477 5.59692 10.1855 5.16333C10.4902 4.72974 10.9922 4.43286 11.6914 4.27271C11.707 4.32349 11.7168 4.36841 11.7207 4.40747C11.7246 4.44653 11.7266 4.4856 11.7266 4.52466Z" fill="white"/>
</g>
<defs>
<clipPath id="clip0_1883_2580">
<rect width="20" height="20" fill="white"/>
</clipPath>
</defs>
</svg>
