<svg width="21" height="20" viewBox="0 0 21 20" fill="none" xmlns="http://www.w3.org/2000/svg">
<path d="M7.10562 15.7193L10.8427 13.4652L14.5797 15.749L13.601 11.4781L16.8931 8.63079L12.5629 8.24523L10.8427 4.21159L9.12244 8.21557L4.79221 8.60114L8.08437 11.4781L7.10562 15.7193ZM10.8427 16.2532L5.91925 19.2191C5.70175 19.3575 5.47437 19.4168 5.2371 19.397C4.99982 19.3773 4.79221 19.2982 4.61425 19.1598C4.4363 19.0214 4.29789 18.8485 4.19903 18.6413C4.10016 18.4333 4.08039 18.2008 4.13971 17.9437L5.44471 12.3382L1.08482 8.57148C0.887097 8.39352 0.763715 8.19065 0.714679 7.96287C0.664851 7.73588 0.679483 7.51364 0.758574 7.29614C0.837665 7.07864 0.956301 6.90068 1.11448 6.76227C1.27266 6.62386 1.49016 6.53489 1.76698 6.49534L7.52084 5.99114L9.74528 0.711819C9.84414 0.474546 9.99758 0.296591 10.2056 0.177955C10.4128 0.0593183 10.6252 0 10.8427 0C11.0602 0 11.2729 0.0593183 11.4809 0.177955C11.6881 0.296591 11.8412 0.474546 11.94 0.711819L14.1645 5.99114L19.9183 6.49534C20.1952 6.53489 20.4127 6.62386 20.5708 6.76227C20.729 6.90068 20.8477 7.07864 20.9267 7.29614C21.0058 7.51364 21.0209 7.73588 20.9718 7.96287C20.922 8.19065 20.7982 8.39352 20.6005 8.57148L16.2406 12.3382L17.5456 17.9437C17.6049 18.2008 17.5852 18.4333 17.4863 18.6413C17.3874 18.8485 17.249 19.0214 17.0711 19.1598C16.8931 19.2982 16.6855 19.3773 16.4482 19.397C16.211 19.4168 15.9836 19.3575 15.7661 19.2191L10.8427 16.2532Z" fill="#DF5757"/>
</svg>
