<svg width="35" height="35" viewBox="0 0 35 35" fill="none" xmlns="http://www.w3.org/2000/svg">
<path fill-rule="evenodd" clip-rule="evenodd" d="M17.5 33.25C26.1984 33.25 33.25 26.1984 33.25 17.5C33.25 8.80163 26.1984 1.75 17.5 1.75C8.80163 1.75 1.75 8.80163 1.75 17.5C1.75 26.1984 8.80163 33.25 17.5 33.25ZM17.5 35C27.1652 35 35 27.1652 35 17.5C35 7.83475 27.1652 0 17.5 0C7.83475 0 0 7.83475 0 17.5C0 27.1652 7.83475 35 17.5 35Z" fill="#D9D9D9"/>
<path d="M7 27.678C7 26.7741 7.6755 26.0103 8.575 25.9105C15.3256 25.1633 19.705 25.2306 26.4407 25.9271C26.7771 25.9625 27.0959 26.095 27.3582 26.3085C27.6205 26.522 27.8149 26.8073 27.9177 27.1295C28.0206 27.4517 28.0273 27.7969 27.9372 28.1228C27.8471 28.4488 27.664 28.7415 27.4102 28.9651C19.4609 35.8943 14.9179 35.7989 7.56 28.9721C7.20125 28.6396 7 28.1663 7 27.678Z" fill="#D9D9D9"/>
<path fill-rule="evenodd" clip-rule="evenodd" d="M26.3506 26.7934C19.6683 26.1022 15.3519 26.0374 8.67038 26.7768C8.45044 26.8024 8.24769 26.9083 8.10093 27.0741C7.95417 27.2399 7.87373 27.454 7.87501 27.6754C7.87501 27.9257 7.97913 28.1628 8.155 28.3273C11.802 31.71 14.5653 33.2387 17.2664 33.2483C19.9771 33.2579 22.8891 31.7415 26.8354 28.3028C26.9607 28.1912 27.051 28.0456 27.0952 27.8837C27.1393 27.7218 27.1355 27.5505 27.0842 27.3907C27.0328 27.2309 26.9362 27.0895 26.8059 26.9836C26.6757 26.8777 26.5175 26.8111 26.3506 26.7934ZM8.47875 25.0373C15.3003 24.2822 19.7435 24.3504 26.5318 25.053C27.0378 25.1058 27.5174 25.3051 27.9119 25.6263C28.3065 25.9475 28.5988 26.3768 28.7531 26.8616C28.9075 27.3463 28.9171 27.8656 28.7808 28.3558C28.6446 28.846 28.3684 29.2858 27.986 29.6214C23.9829 33.1109 20.6491 35.0114 17.2611 34.9983C13.8635 34.986 10.6768 33.0532 6.96588 29.61C6.70019 29.3626 6.48839 29.0629 6.3437 28.7299C6.19902 28.3969 6.12457 28.0376 6.12501 27.6745C6.12373 27.0222 6.36318 26.3922 6.7975 25.9055C7.23181 25.4187 7.83046 25.1101 8.47875 25.0373Z" fill="#D9D9D9"/>
<path d="M24.5 14C24.5 15.8565 23.7625 17.637 22.4497 18.9497C21.137 20.2625 19.3565 21 17.5 21C15.6435 21 13.863 20.2625 12.5503 18.9497C11.2375 17.637 10.5 15.8565 10.5 14C10.5 12.1435 11.2375 10.363 12.5503 9.05025C13.863 7.7375 15.6435 7 17.5 7C19.3565 7 21.137 7.7375 22.4497 9.05025C23.7625 10.363 24.5 12.1435 24.5 14Z" fill="#D9D9D9"/>
<path fill-rule="evenodd" clip-rule="evenodd" d="M17.5 19.25C18.8924 19.25 20.2277 18.6969 21.2123 17.7123C22.1969 16.7277 22.75 15.3924 22.75 14C22.75 12.6076 22.1969 11.2723 21.2123 10.2877C20.2277 9.30312 18.8924 8.75 17.5 8.75C16.1076 8.75 14.7723 9.30312 13.7877 10.2877C12.8031 11.2723 12.25 12.6076 12.25 14C12.25 15.3924 12.8031 16.7277 13.7877 17.7123C14.7723 18.6969 16.1076 19.25 17.5 19.25ZM17.5 21C19.3565 21 21.137 20.2625 22.4497 18.9497C23.7625 17.637 24.5 15.8565 24.5 14C24.5 12.1435 23.7625 10.363 22.4497 9.05025C21.137 7.7375 19.3565 7 17.5 7C15.6435 7 13.863 7.7375 12.5503 9.05025C11.2375 10.363 10.5 12.1435 10.5 14C10.5 15.8565 11.2375 17.637 12.5503 18.9497C13.863 20.2625 15.6435 21 17.5 21Z" fill="#D9D9D9"/>
</svg>
